<svg width="422" height="231" viewBox="0 0 422 231" fill="none" xmlns="http://www.w3.org/2000/svg">
    <path fill-rule="evenodd" clip-rule="evenodd" d="M217.17 229.808C220.194 228.819 220.893 228.227 233.67 215.855C250.999 199.076 414.354 35.4292 417.366 31.8312C427.003 20.3222 419.83 2.83374 404.43 0.290236C400.597 -0.342764 396.69 0.343724 392.263 2.42872C390.548 3.23622 368.718 24.7602 300.503 92.9017L210.994 182.315L167.253 138.532C143.196 114.452 102.792 74.2137 77.4668 49.1142C27.6328 -0.275822 29.8088 1.66969 22.8778 0.311687C10.4408 -2.12581 -1.93371 10.1452 0.25279 22.7477C0.57129 24.5812 1.24683 27.0222 1.75383 28.1722C2.95383 30.8917 33.6108 62.0532 113.598 141.857C195.317 223.388 199.63 227.597 203.083 229.178C206.993 230.968 212.826 231.229 217.17 229.808Z" fill="black"/>
</svg>
