<svg width="422" height="231" viewBox="0 0 422 231" fill="none" xmlns="http://www.w3.org/2000/svg">
    <path fill-rule="evenodd" clip-rule="evenodd" d="M204.568 0.912251C201.544 1.90125 200.845 2.49275 188.068 14.8647C170.739 31.6442 7.38355 195.291 4.37155 198.889C-5.26495 210.398 1.90804 227.886 17.3075 230.43C21.141 231.063 25.0475 230.376 29.475 228.291C31.1895 227.484 53.02 205.96 121.235 137.818L210.744 48.4052L254.485 92.1878C278.542 116.268 318.946 156.506 344.271 181.606C394.105 230.996 391.929 229.05 398.86 230.408C411.297 232.846 423.672 220.575 421.485 207.972C421.167 206.139 420.491 203.698 419.984 202.548C418.784 199.828 388.127 168.667 308.14 88.8633C226.421 7.33176 222.108 3.12326 218.655 1.54226C214.745 -0.247744 208.912 -0.508749 204.568 0.912251Z" fill="black"/>
</svg>
