<svg width="475" height="475" viewBox="0 0 475 475" fill="none" xmlns="http://www.w3.org/2000/svg">
    <path d="M217.587 454.952C212.525 449.89 209.394 442.897 209.398 435.168L209.398 39.5613C209.398 24.1042 221.914 11.588 237.367 11.5923C252.816 11.5923 265.34 24.1084 265.336 39.5613L265.336 435.168C265.336 450.625 252.82 463.141 237.367 463.137C229.638 463.141 222.649 460.015 217.587 454.952V454.952Z" fill="black"/>
    <path d="M19.7789 257.145C14.7167 252.083 11.5898 245.094 11.594 237.365C11.5898 221.912 24.1101 209.392 39.5631 209.396L435.17 209.396C450.627 209.396 463.143 221.912 463.139 237.365C463.139 252.814 450.623 265.339 435.17 265.334L39.5631 265.334C31.8345 265.339 24.8412 262.208 19.7789 257.145V257.145Z" fill="black"/>
</svg>
